<svg width="680" height="680" xmlns="http://www.w3.org/2000/svg" xmlns:xlink="http://www.w3.org/1999/xlink" xml:space="preserve" overflow="hidden"><g transform="translate(641 -435)"><path d="M-301 746.667C-336.417 746.667-364.75 718.333-364.75 682.917-364.75 647.5-336.417 619.167-301 619.167-265.583 619.167-237.25 647.5-237.25 682.917-237.25 718.333-265.583 746.667-301 746.667ZM-301 534.167C-349.875 534.167-395.917 558.25-423.542 599.333-451.167 639.708-456.833 691.417-439.125 737.458L-371.833 886.208-313.75 1008.04C-311.625 1013-306.667 1015.83-301 1015.83-295.333 1015.83-290.375 1013-288.25 1008.04L-230.167 886.208-162.875 737.458C-145.167 691.417-150.833 639.708-178.458 599.333-206.083 558.25-252.125 534.167-301 534.167Z" fill="#FFFFFF"/></g></svg>