<svg width="680" height="680" xmlns="http://www.w3.org/2000/svg" xmlns:xlink="http://www.w3.org/1999/xlink" xml:space="preserve" overflow="hidden"><g transform="matrix(1 0 0 1 0 236)"><path d="M340 75.6667C304.583 75.6667 276.25 47.3333 276.25 11.9167 276.25-23.5 304.583-51.8333 340-51.8333 375.417-51.8333 403.75-23.5 403.75 11.9167 403.75 47.3333 375.417 75.6667 340 75.6667ZM340-136.833C291.125-136.833 245.083-112.75 217.458-71.6667 189.833-31.2917 184.167 20.4167 201.875 66.4583L269.167 215.208 327.25 337.042C329.375 342 334.333 344.833 340 344.833 345.667 344.833 350.625 342 352.75 337.042L410.833 215.208 478.125 66.4583C495.833 20.4167 490.167-31.2917 462.542-71.6667 434.917-112.75 388.875-136.833 340-136.833Z"/></g></svg>