<svg width="681" height="680" xmlns="http://www.w3.org/2000/svg" xmlns:xlink="http://www.w3.org/1999/xlink" xml:space="preserve" overflow="hidden"><g transform="translate(-539 -389)"><path d="M56.6667 141.667 56.6667 538.333 623.333 538.333 623.333 141.667 56.6667 141.667ZM349.917 388.875C344.25 394.542 335.75 394.542 330.083 388.875L120.417 184.167 560.292 184.167 349.917 388.875ZM237.292 337.875 99.1667 476.708 99.1667 202.583 237.292 337.875ZM257.833 357.708 310.958 409.417C319.458 417.208 330.083 421.458 340.708 421.458 351.333 421.458 361.958 417.208 370.458 409.417L423.583 357.708 561 495.833 119.708 495.833 257.833 357.708ZM442.708 337.875 580.833 203.292 580.833 476 442.708 337.875Z" fill="#FFFFFF" transform="matrix(1.00147 0 0 1 539 389)"/></g></svg>