<svg width="680" height="680" xmlns="http://www.w3.org/2000/svg" xmlns:xlink="http://www.w3.org/1999/xlink" xml:space="preserve" overflow="hidden"><g transform="translate(-42 -328)"><path d="M98.6667 469.667 98.6667 866.333 665.333 866.333 665.333 469.667 98.6667 469.667ZM391.917 716.875C386.25 722.542 377.75 722.542 372.083 716.875L162.417 512.167 602.292 512.167 391.917 716.875ZM279.292 665.875 141.167 804.708 141.167 530.583 279.292 665.875ZM299.833 685.708 352.958 737.417C361.458 745.208 372.083 749.458 382.708 749.458 393.333 749.458 403.958 745.208 412.458 737.417L465.583 685.708 603 823.833 161.708 823.833 299.833 685.708ZM484.708 665.875 622.833 531.292 622.833 804 484.708 665.875Z"/></g></svg>