<svg width="2339" height="2339" xmlns="http://www.w3.org/2000/svg" xmlns:xlink="http://www.w3.org/1999/xlink" xml:space="preserve" overflow="hidden"><g transform="translate(-2369 -288)"><path d="M3877.17 1808.35C4067.21 1625.62 4076.96 1323.49 3896.66 1128.58 4089.14 1228.47 4247.51 1381.97 4340.09 1484.3 4242.64 1579.32 4076.96 1720.64 3877.17 1808.35ZM2919.64 1306.44C3000.04 1238.22 3085.32 1179.74 3177.9 1131.01 3000.04 1325.93 3009.79 1625.62 3199.83 1808.35 3000.04 1720.64 2831.93 1579.32 2736.91 1484.3 2792.94 1420.95 2853.86 1362.48 2919.64 1306.44L2919.64 1306.44ZM3538.5 1847.33C3324.09 1847.33 3148.67 1671.91 3148.67 1457.5 3148.67 1243.09 3324.09 1067.67 3538.5 1067.67 3752.91 1067.67 3928.33 1243.09 3928.33 1457.5 3928.33 1671.91 3752.91 1847.33 3538.5 1847.33ZM4486.28 1416.08C4344.97 1250.4 3974.63 872.75 3538.5 872.75 3102.37 872.75 2732.03 1250.4 2590.72 1416.08 2554.17 1459.94 2556.61 1520.85 2595.59 1562.27 2739.34 1713.33 3107.25 2042.25 3538.5 2042.25 3969.75 2042.25 4337.66 1713.33 4483.85 1562.27 4520.39 1523.28 4522.83 1459.94 4486.28 1416.08Z" fill="#AEAEAE"/><path d="M3782.15 1457.5C3782.15 1592.06 3673.06 1701.15 3538.5 1701.15 3403.94 1701.15 3294.85 1592.06 3294.85 1457.5 3294.85 1322.94 3403.94 1213.85 3538.5 1213.85 3673.06 1213.85 3782.15 1322.94 3782.15 1457.5Z" fill="#AEAEAE"/><path d="M2700 619 4376.92 2295.92" stroke="#AEAEAE" stroke-width="137.5" stroke-linecap="round" stroke-miterlimit="8" fill="none" fill-rule="evenodd"/></g></svg>