<svg width="680" height="680" xmlns="http://www.w3.org/2000/svg" xmlns:xlink="http://www.w3.org/1999/xlink" xml:space="preserve" overflow="hidden"><g transform="translate(280 -62)"><path d="M158.458 504C213.708 450.875 216.542 363.042 164.125 306.375 220.083 335.417 266.125 380.042 293.042 409.792 264.708 437.417 216.542 478.5 158.458 504ZM-119.917 358.083C-96.5417 338.25-71.75 321.25-44.8333 307.083-96.5417 363.75-93.7083 450.875-38.4583 504-96.5417 478.5-145.417 437.417-173.042 409.792-156.75 391.375-139.042 374.375-119.917 358.083L-119.917 358.083ZM60 515.333C-2.33331 515.333-53.3333 464.333-53.3333 402-53.3333 339.667-2.33331 288.667 60 288.667 122.333 288.667 173.333 339.667 173.333 402 173.333 464.333 122.333 515.333 60 515.333ZM335.542 389.958C294.458 341.792 186.792 232 60 232-66.7917 232-174.458 341.792-215.542 389.958-226.167 402.708-225.458 420.417-214.125 432.458-172.333 476.375-65.375 572 60 572 185.375 572 292.333 476.375 334.833 432.458 345.458 421.125 346.167 402.708 335.542 389.958Z" fill="#AEAEAE"/><path d="M130.833 402C130.833 441.12 99.1202 472.833 60 472.833 20.8799 472.833-10.8333 441.12-10.8333 402-10.8333 362.88 20.8799 331.167 60 331.167 99.1202 331.167 130.833 362.88 130.833 402Z" fill="#AEAEAE"/></g></svg>