<svg width="675" height="675" xmlns="http://www.w3.org/2000/svg" xmlns:xlink="http://www.w3.org/1999/xlink" xml:space="preserve" overflow="hidden"><g transform="translate(-45 36)"><path d="M523.125 176.344C506.25 176.344 492.188 162.281 492.891 144.703 492.891 127.828 506.953 113.766 523.828 113.766 540.703 113.766 554.766 127.828 554.766 144.703 554.766 153.141 551.25 160.875 545.625 166.5 539.297 172.828 531.562 176.344 523.125 176.344ZM492.891 78.6094C477.422 84.2344 465.469 96.1875 457.734 110.25 447.891 129.234 446.484 151.031 454.219 170.719L487.969 243.844 510.469 290.25C512.578 295.172 517.5 297.984 523.125 297.984 528.75 297.984 533.672 295.172 535.781 290.25L558.281 243.844 592.031 171.422C595.547 162.984 596.953 153.844 596.953 144.703 596.953 95.4844 546.328 58.2188 492.891 78.6094Z" fill="#FFFFFF"/><path d="M368.438 475.875 255.938 419.625 255.938 190.406 368.438 246.656 368.438 475.875ZM227.812 419.625 143.438 461.813 143.438 232.594 227.812 190.406 227.812 419.625ZM617.344 183.375 617.344 183.375 599.766 221.344 621.562 232.594 621.562 461.813 537.188 419.625 537.188 326.109 509.062 326.109 509.062 419.625 396.562 475.875 396.562 246.656 446.484 221.344 428.906 183.375 382.5 206.578 241.875 136.266 101.25 206.578 101.25 530.016 241.875 459.703 382.5 530.016 523.125 459.703 663.75 530.016 663.75 206.578 617.344 183.375Z" fill="#FFFFFF"/></g></svg>