<svg width="680" height="680" xmlns="http://www.w3.org/2000/svg" xmlns:xlink="http://www.w3.org/1999/xlink" xml:space="preserve" overflow="hidden"><g transform="translate(247 83)"><path d="M30.6667 123.833C36.3333 118.167 39.875 110.375 39.875 101.875 39.875 93.375 36.3333 85.5833 30.6667 79.9167L-67.0833-17.125C-72.75-22.7917-80.5417-26.3333-88.3333-26.3333-96.125-26.3333-104.625-22.7917-110.292-17.125L-120.917-6.5 20.0417 134.458 30.6667 123.833Z"/><path d="M173.042 373.875C170.208 376.708 165.958 378.125 162.417 378.125 158.875 378.125 154.625 376.708 151.792 373.875L-23.875 198.917C-26.7083 196.083-28.125 191.833-28.125 188.292-28.125 184.75-26.7083 180.5-23.875 177.667L-1.91667 156.417-142.875 15.4583C-152.083 24.6667-160.583 33.1667-166.25 38.8333-180.417 52.2917-188.917 70-189.625 89.125-191.75 121-183.958 151.458-173.333 181.208-162 207.417-147.125 232.208-130.833 255.583-72.75 342.708 0.208344 418.5 85.2083 478.708 99.375 489.333 114.25 498.542 129.833 507.042 165.25 524.75 202.792 537.5 243.167 540.333 270.083 542.458 297 531.833 315.417 512L334.542 492.875 194.292 351.917 173.042 373.875Z"/><path d="M367.125 417.083 269.375 319.333C263.708 313.667 255.917 310.125 247.417 310.125 238.917 310.125 231.125 313.667 225.458 319.333L214.833 330.667 355.792 471.625 366.417 461C372.083 455.333 375.625 447.542 375.625 439.042 375.625 430.542 372.792 422.75 367.125 417.083Z"/></g></svg>