<svg width="681" height="680" xmlns="http://www.w3.org/2000/svg" xmlns:xlink="http://www.w3.org/1999/xlink" xml:space="preserve" overflow="hidden"><g transform="translate(-56 -435)"><path d="M277.667 206.833C283.333 201.167 286.875 193.375 286.875 184.875 286.875 176.375 283.333 168.583 277.667 162.917L179.917 65.875C174.25 60.2083 166.458 56.6667 158.667 56.6667 150.875 56.6667 142.375 60.2083 136.708 65.875L126.083 76.5 267.042 217.458 277.667 206.833Z" fill="#FFFFFF" transform="matrix(1.00147 0 0 1 56 435)"/><path d="M420.042 456.875C417.208 459.708 412.958 461.125 409.417 461.125 405.875 461.125 401.625 459.708 398.792 456.875L223.125 281.917C220.292 279.083 218.875 274.833 218.875 271.292 218.875 267.75 220.292 263.5 223.125 260.667L245.083 239.417 104.125 98.4583C94.9167 107.667 86.4167 116.167 80.75 121.833 66.5833 135.292 58.0833 153 57.375 172.125 55.25 204 63.0417 234.458 73.6667 264.208 85 290.417 99.875 315.208 116.167 338.583 174.25 425.708 247.208 501.5 332.208 561.708 346.375 572.333 361.25 581.542 376.833 590.042 412.25 607.75 449.792 620.5 490.167 623.333 517.083 625.458 544 614.833 562.417 595L581.542 575.875 441.292 434.917 420.042 456.875Z" fill="#FFFFFF" transform="matrix(1.00147 0 0 1 56 435)"/><path d="M614.125 500.083 516.375 402.333C510.708 396.667 502.917 393.125 494.417 393.125 485.917 393.125 478.125 396.667 472.458 402.333L461.833 413.667 602.792 554.625 613.417 544C619.083 538.333 622.625 530.542 622.625 522.042 622.625 513.542 619.792 505.75 614.125 500.083Z" fill="#FFFFFF" transform="matrix(1.00147 0 0 1 56 435)"/></g></svg>